<svg width="10" height="16" viewBox="0 0 10 16" fill="none" xmlns="http://www.w3.org/2000/svg">
<path d="M5.63328 15V13.2H6.66662C7.50021 13.2 8.29809 12.882 8.88513 12.3185C9.47191 11.7552 9.79995 10.993 9.79995 10.2C9.79995 9.40705 9.47191 8.64484 8.88513 8.08154C8.29809 7.51797 7.50021 7.2 6.66662 7.2H3.33328C2.84078 7.2 2.3669 7.01225 2.01627 6.67565C1.66535 6.33877 1.46662 5.88008 1.46662 5.4C1.46662 4.91992 1.66535 4.46123 2.01627 4.12435C2.3669 3.78774 2.84078 3.6 3.33328 3.6H7.49995C7.77144 3.6 8.03336 3.70346 8.22771 3.89004C8.42235 4.07689 8.53328 4.3321 8.53328 4.6C8.53328 4.75641 8.59792 4.90818 8.71587 5.02141C8.83406 5.13487 8.99605 5.2 9.16662 5.2C9.33718 5.2 9.49918 5.13487 9.61737 5.02141C9.73531 4.90818 9.79995 4.75641 9.79995 4.6C9.79995 4.01923 9.5597 3.46049 9.12921 3.04722C8.69845 2.63369 8.11253 2.4 7.49995 2.4H5.63328V0.6C5.63328 0.443591 5.56865 0.29182 5.4507 0.178592C5.33251 0.0651278 5.17051 0 4.99995 0C4.82939 0 4.66739 0.0651278 4.5492 0.178592C4.43126 0.29182 4.36662 0.443591 4.36662 0.6V2.4H3.33328C2.49969 2.4 1.70181 2.71797 1.11477 3.28154C0.527997 3.84484 0.199951 4.60705 0.199951 5.4C0.199951 6.19295 0.527997 6.95516 1.11477 7.51846C1.70181 8.08203 2.49969 8.4 3.33328 8.4H6.66662C7.15912 8.4 7.633 8.58774 7.98363 8.92435C8.33455 9.26123 8.53328 9.71992 8.53328 10.2C8.53328 10.6801 8.33455 11.1388 7.98363 11.4756C7.633 11.8123 7.15912 12 6.66662 12H2.49995C2.22846 12 1.96654 11.8965 1.77219 11.71C1.57755 11.5231 1.46662 11.2679 1.46662 11C1.46662 10.8436 1.40198 10.6918 1.28403 10.5786C1.16584 10.4651 1.00385 10.4 0.833285 10.4C0.662721 10.4 0.500727 10.4651 0.382535 10.5786C0.264589 10.6918 0.199951 10.8436 0.199951 11C0.199951 11.5808 0.440198 12.1395 0.870691 12.5528C1.30145 12.9663 1.88737 13.2 2.49995 13.2H4.36662V15C4.36662 15.1564 4.43126 15.3082 4.5492 15.4214C4.66739 15.5349 4.82939 15.6 4.99995 15.6C5.17052 15.6 5.33251 15.5349 5.4507 15.4214C5.56865 15.3082 5.63328 15.1564 5.63328 15Z" fill="#F3ECFE"/>
</svg>
