<svg width="12" height="16" viewBox="0 0 12 16" fill="none" xmlns="http://www.w3.org/2000/svg">
<path fill-rule="evenodd" clip-rule="evenodd" d="M6.24823 15.1575L6.25244 15.1554L6.26583 15.1485C6.27753 15.1425 6.29436 15.1338 6.31559 15.1227C6.35803 15.1004 6.41891 15.0679 6.49557 15.0255C6.64883 14.9406 6.86564 14.8159 7.12486 14.6539C7.64217 14.3306 8.33422 13.8551 9.02888 13.2472C10.395 12.0518 11.8834 10.2456 11.8834 7.99999V3.33333C11.8834 3.10406 11.7411 2.89884 11.5265 2.81834L6.19315 0.818344C6.06864 0.771652 5.93143 0.771652 5.80691 0.818344L0.473581 2.81834C0.258914 2.89884 0.116699 3.10406 0.116699 3.33333V7.99999C0.116699 10.2456 1.60502 12.0518 2.97119 13.2472C3.66584 13.8551 4.3579 14.3306 4.8752 14.6539C5.13442 14.8159 5.35123 14.9406 5.50449 15.0255C5.58116 15.0679 5.64203 15.1004 5.68448 15.1227L5.70981 15.1359L5.73424 15.1485L5.74798 15.1555L5.75198 15.1575L5.75377 15.1584L5.75791 15.1605C5.91069 15.2353 6.09035 15.2349 6.24289 15.1601L6.24689 15.1581L6.24823 15.1575ZM6.05694 14.7804L6.20199 15.0688L6.00003 14.6667L6.05694 14.7804ZM5.4582 13.7211C5.67819 13.8586 5.86402 13.9664 6.00003 14.0424C6.13605 13.9664 6.32188 13.8586 6.54187 13.7211C7.02456 13.4194 7.66584 12.9783 8.30452 12.4194C9.60496 11.2815 10.7834 9.75447 10.7834 7.99999V3.71448L6.00003 1.92073L1.2167 3.71448V7.99999C1.2167 9.75447 2.3951 11.2815 3.69554 12.4194C4.33422 12.9783 4.9755 13.4194 5.4582 13.7211Z" fill="#F3ECFE"/>
</svg>
